<mxfile host="app.diagrams.net" modified="2021-09-12T07:53:08.667Z" agent="5.0 (Macintosh)" etag="CoX1gEW-y1rIPRGLcYe0" version="15.0.6" type="github" pages="2">
  <diagram id="TrxYYNpDbD-IIdgH7Vm6" name="DWH layers">
    <mxGraphModel dx="1529" dy="615" grid="0" gridSize="10" guides="1" tooltips="1" connect="1" arrows="1" fold="1" page="1" pageScale="1" pageWidth="583" pageHeight="413" background="#FFFFFF" math="0" shadow="0">
      <root>
        <mxCell id="0" />
        <mxCell id="1" parent="0" />
        <mxCell id="qaGRKvT1l1mY-O0_eX8v-86" value="" style="rounded=0;whiteSpace=wrap;html=1;labelBackgroundColor=#DAD2D8;sketch=0;fontSize=9;fontColor=#143642;strokeColor=#000000;strokeWidth=0;fillColor=#ffffff;" parent="1" vertex="1">
          <mxGeometry x="-66" y="40" width="40" height="40" as="geometry" />
        </mxCell>
        <mxCell id="qaGRKvT1l1mY-O0_eX8v-33" style="edgeStyle=orthogonalEdgeStyle;rounded=0;sketch=0;jumpSize=6;orthogonalLoop=1;jettySize=auto;html=1;entryX=0;entryY=0.25;entryDx=0;entryDy=0;fontSize=9;startArrow=none;startFill=0;endArrow=classic;endFill=1;exitX=0;exitY=0.5;exitDx=0;exitDy=0;strokeColor=#d79b00;fontColor=#143642;labelBackgroundColor=#DAD2D8;fillColor=#ffe6cc;" parent="1" source="qaGRKvT1l1mY-O0_eX8v-15" target="qaGRKvT1l1mY-O0_eX8v-2" edge="1">
          <mxGeometry relative="1" as="geometry">
            <Array as="points">
              <mxPoint x="-536" y="160" />
              <mxPoint x="-536" y="250" />
            </Array>
          </mxGeometry>
        </mxCell>
        <mxCell id="qaGRKvT1l1mY-O0_eX8v-28" style="edgeStyle=orthogonalEdgeStyle;rounded=0;sketch=0;jumpSize=6;orthogonalLoop=1;jettySize=auto;html=1;entryX=0.75;entryY=1;entryDx=0;entryDy=0;startArrow=none;startFill=0;endArrow=classic;endFill=1;fontSize=9;fillColor=#ffe6cc;strokeColor=#d79b00;exitX=0.75;exitY=0;exitDx=0;exitDy=0;fontColor=#143642;labelBackgroundColor=#DAD2D8;" parent="1" source="qaGRKvT1l1mY-O0_eX8v-2" target="qaGRKvT1l1mY-O0_eX8v-1" edge="1">
          <mxGeometry x="-546" as="geometry" />
        </mxCell>
        <mxCell id="qaGRKvT1l1mY-O0_eX8v-38" style="edgeStyle=orthogonalEdgeStyle;rounded=0;sketch=0;jumpSize=6;orthogonalLoop=1;jettySize=auto;html=1;entryX=0.5;entryY=1;entryDx=0;entryDy=0;fontSize=9;startArrow=none;startFill=0;endArrow=classic;endFill=1;fillColor=#ffe6cc;strokeColor=#d79b00;exitX=0.75;exitY=0;exitDx=0;exitDy=0;fontColor=#143642;labelBackgroundColor=#DAD2D8;" parent="1" source="qaGRKvT1l1mY-O0_eX8v-2" target="qaGRKvT1l1mY-O0_eX8v-34" edge="1">
          <mxGeometry relative="1" as="geometry">
            <Array as="points">
              <mxPoint x="-416" y="210" />
              <mxPoint x="-106" y="210" />
            </Array>
          </mxGeometry>
        </mxCell>
        <mxCell id="qaGRKvT1l1mY-O0_eX8v-46" value="1:1 views of all tables within archive layer" style="edgeLabel;html=1;align=center;verticalAlign=middle;resizable=0;points=[];fontSize=3;fontColor=#143642;labelBackgroundColor=#DAD2D8;" parent="qaGRKvT1l1mY-O0_eX8v-38" vertex="1" connectable="0">
          <mxGeometry x="0.9217" relative="1" as="geometry">
            <mxPoint as="offset" />
          </mxGeometry>
        </mxCell>
        <mxCell id="qaGRKvT1l1mY-O0_eX8v-47" style="edgeStyle=orthogonalEdgeStyle;rounded=0;sketch=0;jumpSize=6;orthogonalLoop=1;jettySize=auto;html=1;fontSize=3;startArrow=none;startFill=0;endArrow=classic;endFill=1;exitX=0.25;exitY=0;exitDx=0;exitDy=0;entryX=0.25;entryY=1;entryDx=0;entryDy=0;strokeColor=#A8201A;fontColor=#143642;labelBackgroundColor=#DAD2D8;" parent="1" source="qaGRKvT1l1mY-O0_eX8v-2" target="qaGRKvT1l1mY-O0_eX8v-1" edge="1">
          <mxGeometry relative="1" as="geometry">
            <mxPoint x="-435" y="183" as="targetPoint" />
          </mxGeometry>
        </mxCell>
        <mxCell id="qaGRKvT1l1mY-O0_eX8v-2" value="Table &amp;amp; Column data" style="rounded=0;whiteSpace=wrap;html=1;fontSize=9;fillColor=#FAE5C7;strokeColor=#0F8B8D;fontColor=#143642;" parent="1" vertex="1">
          <mxGeometry x="-446" y="240" width="40" height="40" as="geometry" />
        </mxCell>
        <mxCell id="qaGRKvT1l1mY-O0_eX8v-17" style="edgeStyle=orthogonalEdgeStyle;rounded=0;orthogonalLoop=1;jettySize=auto;html=1;fontSize=9;entryX=-0.003;entryY=0.141;entryDx=0;entryDy=0;entryPerimeter=0;strokeColor=#A8201A;fontColor=#143642;labelBackgroundColor=#DAD2D8;" parent="1" source="qaGRKvT1l1mY-O0_eX8v-3" target="qaGRKvT1l1mY-O0_eX8v-1" edge="1">
          <mxGeometry x="-526" y="40" as="geometry">
            <mxPoint x="-456" y="50" as="targetPoint" />
          </mxGeometry>
        </mxCell>
        <mxCell id="qaGRKvT1l1mY-O0_eX8v-3" value="&lt;div style=&quot;font-size: 9px;&quot;&gt;Adven-ture-Works&lt;br style=&quot;font-size: 9px;&quot;&gt;&lt;/div&gt;" style="rounded=0;whiteSpace=wrap;html=1;fontSize=9;fillColor=#FAE5C7;strokeColor=#0F8B8D;fontColor=#143642;" parent="1" vertex="1">
          <mxGeometry x="-526" y="40" width="40" height="40" as="geometry" />
        </mxCell>
        <mxCell id="qaGRKvT1l1mY-O0_eX8v-5" value="" style="edgeStyle=orthogonalEdgeStyle;rounded=0;orthogonalLoop=1;jettySize=auto;html=1;exitX=0;exitY=0.5;exitDx=0;exitDy=0;entryX=0;entryY=0.75;entryDx=0;entryDy=0;strokeColor=#d79b00;fontColor=#143642;labelBackgroundColor=#DAD2D8;fillColor=#ffe6cc;" parent="1" source="qaGRKvT1l1mY-O0_eX8v-3" target="qaGRKvT1l1mY-O0_eX8v-2" edge="1">
          <mxGeometry x="-526" y="40" as="geometry">
            <mxPoint x="-456" y="278" as="targetPoint" />
            <Array as="points">
              <mxPoint x="-556" y="60" />
              <mxPoint x="-556" y="270" />
            </Array>
            <mxPoint as="offset" />
          </mxGeometry>
        </mxCell>
        <mxCell id="qaGRKvT1l1mY-O0_eX8v-18" style="edgeStyle=orthogonalEdgeStyle;rounded=0;orthogonalLoop=1;jettySize=auto;html=1;entryX=0;entryY=0.5;entryDx=0;entryDy=0;fontSize=9;strokeColor=#A8201A;fontColor=#143642;labelBackgroundColor=#DAD2D8;" parent="1" source="qaGRKvT1l1mY-O0_eX8v-6" target="qaGRKvT1l1mY-O0_eX8v-1" edge="1">
          <mxGeometry x="-526" y="40" as="geometry" />
        </mxCell>
        <mxCell id="qaGRKvT1l1mY-O0_eX8v-6" value="Example Source 2" style="rounded=0;whiteSpace=wrap;html=1;fontSize=9;fillColor=#FAE5C7;strokeColor=#0F8B8D;fontColor=#143642;" parent="1" vertex="1">
          <mxGeometry x="-526" y="90" width="40" height="40" as="geometry" />
        </mxCell>
        <mxCell id="qaGRKvT1l1mY-O0_eX8v-9" value="" style="edgeStyle=orthogonalEdgeStyle;rounded=0;orthogonalLoop=1;jettySize=auto;html=1;exitX=0;exitY=0.5;exitDx=0;exitDy=0;strokeColor=#d79b00;fontColor=#143642;labelBackgroundColor=#DAD2D8;fillColor=#ffe6cc;" parent="1" source="qaGRKvT1l1mY-O0_eX8v-6" edge="1">
          <mxGeometry x="-526" y="40" as="geometry">
            <mxPoint x="-536" y="130" as="sourcePoint" />
            <mxPoint x="-446" y="260" as="targetPoint" />
            <Array as="points">
              <mxPoint x="-546" y="110" />
              <mxPoint x="-546" y="260" />
              <mxPoint x="-446" y="260" />
            </Array>
            <mxPoint as="offset" />
          </mxGeometry>
        </mxCell>
        <mxCell id="qaGRKvT1l1mY-O0_eX8v-43" value="Table&lt;br style=&quot;font-size: 3px;&quot;&gt;Metadata: Table, columns, constraints" style="edgeLabel;html=1;align=center;verticalAlign=middle;resizable=0;points=[];fontSize=3;labelBorderColor=none;fontColor=#143642;labelBackgroundColor=#DAD2D8;" parent="qaGRKvT1l1mY-O0_eX8v-9" vertex="1" connectable="0">
          <mxGeometry relative="1" as="geometry">
            <mxPoint y="-6" as="offset" />
          </mxGeometry>
        </mxCell>
        <mxCell id="qaGRKvT1l1mY-O0_eX8v-29" style="edgeStyle=orthogonalEdgeStyle;rounded=0;sketch=0;jumpSize=6;orthogonalLoop=1;jettySize=auto;html=1;entryX=0.5;entryY=1;entryDx=0;entryDy=0;startArrow=none;startFill=0;endArrow=classic;endFill=1;exitX=0.75;exitY=0;exitDx=0;exitDy=0;fontSize=9;fillColor=#ffe6cc;strokeColor=#d79b00;fontColor=#143642;labelBackgroundColor=#DAD2D8;" parent="1" source="qaGRKvT1l1mY-O0_eX8v-2" target="qaGRKvT1l1mY-O0_eX8v-10" edge="1">
          <mxGeometry x="-546" as="geometry" />
        </mxCell>
        <mxCell id="qaGRKvT1l1mY-O0_eX8v-19" style="edgeStyle=orthogonalEdgeStyle;rounded=0;orthogonalLoop=1;jettySize=auto;html=1;entryX=0.015;entryY=0.853;entryDx=0;entryDy=0;entryPerimeter=0;fontSize=9;strokeColor=#A8201A;fontColor=#143642;labelBackgroundColor=#DAD2D8;" parent="1" source="qaGRKvT1l1mY-O0_eX8v-15" target="qaGRKvT1l1mY-O0_eX8v-1" edge="1">
          <mxGeometry x="-526" y="40" as="geometry" />
        </mxCell>
        <mxCell id="qaGRKvT1l1mY-O0_eX8v-15" value="Example Source 3" style="rounded=0;whiteSpace=wrap;html=1;fontSize=9;fillColor=#FAE5C7;strokeColor=#0F8B8D;fontColor=#143642;" parent="1" vertex="1">
          <mxGeometry x="-526" y="140" width="40" height="40" as="geometry" />
        </mxCell>
        <mxCell id="qaGRKvT1l1mY-O0_eX8v-37" style="edgeStyle=orthogonalEdgeStyle;rounded=0;sketch=0;jumpSize=6;orthogonalLoop=1;jettySize=auto;html=1;fontSize=9;startArrow=none;startFill=0;endArrow=classic;endFill=1;strokeColor=#A8201A;fontColor=#143642;labelBackgroundColor=#DAD2D8;entryX=-0.03;entryY=0.427;entryDx=0;entryDy=0;entryPerimeter=0;" parent="1" source="qaGRKvT1l1mY-O0_eX8v-22" target="qaGRKvT1l1mY-O0_eX8v-34" edge="1">
          <mxGeometry relative="1" as="geometry">
            <mxPoint x="-126" y="96" as="targetPoint" />
          </mxGeometry>
        </mxCell>
        <mxCell id="qaGRKvT1l1mY-O0_eX8v-63" style="edgeStyle=orthogonalEdgeStyle;rounded=0;sketch=0;jumpSize=6;orthogonalLoop=1;jettySize=auto;html=1;entryX=0.25;entryY=0;entryDx=0;entryDy=0;labelBackgroundColor=#DAD2D8;fontSize=9;fontColor=#143642;startFill=0;endFill=1;strokeColor=#A8201A;exitX=0.75;exitY=1;exitDx=0;exitDy=0;" parent="1" source="qaGRKvT1l1mY-O0_eX8v-22" target="qaGRKvT1l1mY-O0_eX8v-23" edge="1">
          <mxGeometry relative="1" as="geometry">
            <Array as="points">
              <mxPoint x="-186" y="120" />
              <mxPoint x="-186" y="138" />
            </Array>
          </mxGeometry>
        </mxCell>
        <mxCell id="qaGRKvT1l1mY-O0_eX8v-67" style="edgeStyle=orthogonalEdgeStyle;rounded=0;sketch=0;jumpStyle=arc;jumpSize=4;orthogonalLoop=1;jettySize=auto;html=1;labelBackgroundColor=#DAD2D8;fontSize=9;fontColor=#143642;startFill=0;endFill=1;strokeColor=#A8201A;exitX=1;exitY=0.429;exitDx=0;exitDy=0;exitPerimeter=0;" parent="1" source="qaGRKvT1l1mY-O0_eX8v-20" target="qaGRKvT1l1mY-O0_eX8v-22" edge="1">
          <mxGeometry relative="1" as="geometry" />
        </mxCell>
        <mxCell id="qaGRKvT1l1mY-O0_eX8v-90" style="edgeStyle=orthogonalEdgeStyle;rounded=0;sketch=0;jumpStyle=arc;jumpSize=4;orthogonalLoop=1;jettySize=auto;html=1;labelBackgroundColor=#DAD2D8;fontSize=9;fontColor=#143642;startFill=0;endFill=1;strokeColor=#A8201A;exitX=0;exitY=0.75;exitDx=0;exitDy=0;entryX=0.25;entryY=1;entryDx=0;entryDy=0;" parent="1" source="qaGRKvT1l1mY-O0_eX8v-22" target="qaGRKvT1l1mY-O0_eX8v-22" edge="1">
          <mxGeometry relative="1" as="geometry">
            <mxPoint x="-216" y="130" as="targetPoint" />
            <Array as="points">
              <mxPoint x="-226" y="110" />
              <mxPoint x="-226" y="130" />
              <mxPoint x="-206" y="130" />
            </Array>
          </mxGeometry>
        </mxCell>
        <mxCell id="qaGRKvT1l1mY-O0_eX8v-22" value="Dim" style="rounded=0;whiteSpace=wrap;html=1;fontSize=9;fillColor=#FAE5C7;strokeColor=#0F8B8D;fontColor=#143642;" parent="1" vertex="1">
          <mxGeometry x="-216" y="80" width="40" height="40" as="geometry" />
        </mxCell>
        <mxCell id="qaGRKvT1l1mY-O0_eX8v-36" style="edgeStyle=orthogonalEdgeStyle;rounded=0;sketch=0;jumpSize=6;orthogonalLoop=1;jettySize=auto;html=1;fontSize=9;startArrow=none;startFill=0;endArrow=classic;endFill=1;strokeColor=#A8201A;fontColor=#143642;labelBackgroundColor=#DAD2D8;entryX=-0.01;entryY=0.843;entryDx=0;entryDy=0;entryPerimeter=0;" parent="1" source="qaGRKvT1l1mY-O0_eX8v-23" target="qaGRKvT1l1mY-O0_eX8v-34" edge="1">
          <mxGeometry relative="1" as="geometry">
            <mxPoint x="-126" y="154" as="targetPoint" />
          </mxGeometry>
        </mxCell>
        <mxCell id="qaGRKvT1l1mY-O0_eX8v-68" style="edgeStyle=orthogonalEdgeStyle;rounded=0;sketch=0;jumpStyle=arc;jumpSize=4;orthogonalLoop=1;jettySize=auto;html=1;labelBackgroundColor=#DAD2D8;fontSize=9;fontColor=#143642;startFill=0;endFill=1;strokeColor=#A8201A;exitX=1.004;exitY=0.85;exitDx=0;exitDy=0;exitPerimeter=0;" parent="1" source="qaGRKvT1l1mY-O0_eX8v-20" target="qaGRKvT1l1mY-O0_eX8v-23" edge="1">
          <mxGeometry relative="1" as="geometry" />
        </mxCell>
        <mxCell id="qaGRKvT1l1mY-O0_eX8v-23" value="Fact" style="rounded=0;whiteSpace=wrap;html=1;fontSize=9;fillColor=#FAE5C7;strokeColor=#0F8B8D;fontColor=#143642;" parent="1" vertex="1">
          <mxGeometry x="-196" y="137.5" width="40" height="42.5" as="geometry" />
        </mxCell>
        <mxCell id="qaGRKvT1l1mY-O0_eX8v-30" style="edgeStyle=orthogonalEdgeStyle;rounded=0;sketch=0;jumpSize=6;orthogonalLoop=1;jettySize=auto;html=1;entryX=0.5;entryY=1;entryDx=0;entryDy=0;startArrow=none;startFill=0;endArrow=classic;endFill=1;exitX=0.75;exitY=0;exitDx=0;exitDy=0;fontSize=9;fillColor=#ffe6cc;strokeColor=#d79b00;fontColor=#143642;labelBackgroundColor=#DAD2D8;" parent="1" source="qaGRKvT1l1mY-O0_eX8v-2" target="qaGRKvT1l1mY-O0_eX8v-20" edge="1">
          <mxGeometry x="-546" as="geometry" />
        </mxCell>
        <mxCell id="qaGRKvT1l1mY-O0_eX8v-44" value="&lt;div style=&quot;font-size: 3px;&quot;&gt;DDL statements +&lt;/div&gt;&lt;div style=&quot;font-size: 3px;&quot;&gt;object descriptions&lt;br style=&quot;font-size: 3px;&quot;&gt;&lt;/div&gt;" style="edgeLabel;html=1;align=center;verticalAlign=middle;resizable=0;points=[];fontSize=3;labelBorderColor=none;fontColor=#143642;labelBackgroundColor=#DAD2D8;" parent="qaGRKvT1l1mY-O0_eX8v-30" vertex="1" connectable="0">
          <mxGeometry relative="1" as="geometry">
            <mxPoint x="-75" y="10" as="offset" />
          </mxGeometry>
        </mxCell>
        <mxCell id="qaGRKvT1l1mY-O0_eX8v-45" value="Pkey definitions to define map tables" style="edgeLabel;html=1;align=center;verticalAlign=middle;resizable=0;points=[];fontSize=3;fontColor=#143642;labelBackgroundColor=#DAD2D8;" parent="qaGRKvT1l1mY-O0_eX8v-30" vertex="1" connectable="0">
          <mxGeometry relative="1" as="geometry">
            <mxPoint x="75" y="-12" as="offset" />
          </mxGeometry>
        </mxCell>
        <mxCell id="qaGRKvT1l1mY-O0_eX8v-1" value="Extract" style="rounded=0;whiteSpace=wrap;html=1;fontSize=9;fillColor=#FAE5C7;strokeColor=#0F8B8D;fontColor=#143642;" parent="1" vertex="1">
          <mxGeometry x="-446" y="40" width="40" height="140" as="geometry" />
        </mxCell>
        <mxCell id="qaGRKvT1l1mY-O0_eX8v-39" style="edgeStyle=orthogonalEdgeStyle;rounded=0;sketch=0;jumpSize=6;orthogonalLoop=1;jettySize=auto;html=1;entryX=0.5;entryY=0;entryDx=0;entryDy=0;fontSize=9;startArrow=none;startFill=0;endArrow=classic;endFill=1;exitX=0.5;exitY=0;exitDx=0;exitDy=0;strokeColor=#A8201A;fontColor=#143642;labelBackgroundColor=#DAD2D8;jumpStyle=none;" parent="1" source="qaGRKvT1l1mY-O0_eX8v-10" target="qaGRKvT1l1mY-O0_eX8v-34" edge="1">
          <mxGeometry relative="1" as="geometry" />
        </mxCell>
        <mxCell id="qaGRKvT1l1mY-O0_eX8v-61" style="edgeStyle=orthogonalEdgeStyle;rounded=0;orthogonalLoop=1;jettySize=auto;html=1;sketch=0;jumpSize=6;fontSize=9;exitX=1;exitY=0.5;exitDx=0;exitDy=0;entryX=0;entryY=0.5;entryDx=0;entryDy=0;strokeColor=#A8201A;fontColor=#143642;labelBackgroundColor=#DAD2D8;" parent="1" source="qaGRKvT1l1mY-O0_eX8v-10" target="qaGRKvT1l1mY-O0_eX8v-20" edge="1">
          <mxGeometry relative="1" as="geometry" />
        </mxCell>
        <mxCell id="qaGRKvT1l1mY-O0_eX8v-10" value="Archive" style="rounded=0;whiteSpace=wrap;html=1;fontSize=9;fillColor=#FAE5C7;strokeColor=#0F8B8D;fontColor=#143642;" parent="1" vertex="1">
          <mxGeometry x="-366" y="40" width="40" height="140" as="geometry" />
        </mxCell>
        <mxCell id="qaGRKvT1l1mY-O0_eX8v-70" style="edgeStyle=orthogonalEdgeStyle;rounded=0;sketch=0;jumpStyle=arc;jumpSize=4;orthogonalLoop=1;jettySize=auto;html=1;entryX=0.5;entryY=0;entryDx=0;entryDy=0;labelBackgroundColor=#DAD2D8;fontSize=9;fontColor=#143642;startFill=0;endFill=1;strokeColor=#A8201A;exitX=0.333;exitY=1.06;exitDx=0;exitDy=0;exitPerimeter=0;" parent="1" source="qaGRKvT1l1mY-O0_eX8v-13" target="qaGRKvT1l1mY-O0_eX8v-22" edge="1">
          <mxGeometry relative="1" as="geometry" />
        </mxCell>
        <mxCell id="qaGRKvT1l1mY-O0_eX8v-71" style="edgeStyle=orthogonalEdgeStyle;rounded=0;sketch=0;jumpStyle=arc;jumpSize=4;orthogonalLoop=1;jettySize=auto;html=1;labelBackgroundColor=#DAD2D8;fontSize=9;fontColor=#143642;startFill=0;endFill=1;strokeColor=#A8201A;exitX=0.831;exitY=1.04;exitDx=0;exitDy=0;exitPerimeter=0;entryX=0.745;entryY=-0.027;entryDx=0;entryDy=0;entryPerimeter=0;" parent="1" source="qaGRKvT1l1mY-O0_eX8v-13" target="qaGRKvT1l1mY-O0_eX8v-23" edge="1">
          <mxGeometry relative="1" as="geometry">
            <mxPoint x="-176" y="130" as="targetPoint" />
          </mxGeometry>
        </mxCell>
        <mxCell id="qaGRKvT1l1mY-O0_eX8v-13" value="Map" style="rounded=0;whiteSpace=wrap;html=1;fontSize=9;fillColor=#FAE5C7;strokeColor=#0F8B8D;fontColor=#143642;" parent="1" vertex="1">
          <mxGeometry x="-216" y="40" width="60" height="20" as="geometry" />
        </mxCell>
        <mxCell id="qaGRKvT1l1mY-O0_eX8v-20" value="Staging" style="rounded=0;whiteSpace=wrap;html=1;fontSize=9;fillColor=#FAE5C7;strokeColor=#0F8B8D;fontColor=#143642;" parent="1" vertex="1">
          <mxGeometry x="-286" y="40" width="40" height="140" as="geometry" />
        </mxCell>
        <mxCell id="qaGRKvT1l1mY-O0_eX8v-12" value="" style="edgeStyle=orthogonalEdgeStyle;rounded=0;orthogonalLoop=1;jettySize=auto;html=1;entryX=0;entryY=0.5;entryDx=0;entryDy=0;fontSize=9;strokeColor=#A8201A;fontColor=#143642;labelBackgroundColor=#DAD2D8;" parent="1" source="qaGRKvT1l1mY-O0_eX8v-1" target="qaGRKvT1l1mY-O0_eX8v-10" edge="1">
          <mxGeometry x="-426" y="72.94117647058823" as="geometry" />
        </mxCell>
        <mxCell id="qaGRKvT1l1mY-O0_eX8v-34" value="View" style="rounded=0;whiteSpace=wrap;html=1;fontSize=9;fillColor=#FAE5C7;strokeColor=#0F8B8D;fontColor=#143642;" parent="1" vertex="1">
          <mxGeometry x="-126" y="40" width="40" height="140" as="geometry" />
        </mxCell>
        <mxCell id="qaGRKvT1l1mY-O0_eX8v-48" value="&lt;div&gt;Tests&lt;/div&gt;" style="rounded=0;whiteSpace=wrap;html=1;fontSize=9;fillColor=#FAE5C7;strokeColor=#0F8B8D;fontColor=#143642;" parent="1" vertex="1">
          <mxGeometry x="-326" y="240" width="40" height="40" as="geometry" />
        </mxCell>
        <mxCell id="qaGRKvT1l1mY-O0_eX8v-49" value="Audit" style="rounded=0;whiteSpace=wrap;html=1;fontSize=9;fillColor=#FAE5C7;strokeColor=#0F8B8D;fontColor=#143642;" parent="1" vertex="1">
          <mxGeometry x="-266" y="240" width="40" height="40" as="geometry" />
        </mxCell>
        <mxCell id="qaGRKvT1l1mY-O0_eX8v-50" value="&lt;p style=&quot;line-height: 100%&quot;&gt;&lt;/p&gt;&lt;div align=&quot;left&quot;&gt;1. Get all table names of source tables via script&lt;/div&gt;&lt;div align=&quot;left&quot;&gt;1a. Get all column names within tables as listed above, via script&lt;/div&gt;&lt;div align=&quot;left&quot;&gt;1b. Get primary key constraints (for making mapping columns + defining pkey constraints)&lt;/div&gt;&lt;div align=&quot;left&quot;&gt;1c. Get object descriptions&lt;/div&gt;&lt;div align=&quot;left&quot;&gt;2. Generate DDL&#39;s to create standardized layers&lt;/div&gt;&lt;div align=&quot;left&quot;&gt;3. Load this metadata through layers&lt;br&gt;&lt;/div&gt;&lt;div align=&quot;left&quot;&gt;&lt;br&gt;&lt;/div&gt;&lt;p&gt;&lt;/p&gt;" style="text;html=1;strokeColor=none;fillColor=none;align=left;verticalAlign=top;whiteSpace=wrap;rounded=0;fontSize=3;spacing=0;fontColor=#143642;" parent="1" vertex="1">
          <mxGeometry x="-446" y="290" width="40" height="60" as="geometry" />
        </mxCell>
        <mxCell id="qaGRKvT1l1mY-O0_eX8v-51" value="&lt;div&gt;1. Has data/DB objects&amp;nbsp; in source systems been changed? i.e. is it out of sync with what is available in Table &amp;amp; Column Data?&lt;/div&gt;&lt;div&gt;2. Do all tables contain data?&lt;/div&gt;&lt;div&gt;3. What percentage of HKey columns are set to -1?&lt;/div&gt;&lt;div&gt;Table to contain link between rows and what failed&lt;/div&gt;&lt;div&gt;Table to count sum of the different error types and what tables have these errors&lt;br&gt;&lt;/div&gt;" style="text;html=1;strokeColor=none;fillColor=none;align=left;verticalAlign=top;whiteSpace=wrap;rounded=0;fontSize=3;spacing=0;fontColor=#143642;" parent="1" vertex="1">
          <mxGeometry x="-326" y="290" width="40" height="60" as="geometry" />
        </mxCell>
        <mxCell id="qaGRKvT1l1mY-O0_eX8v-57" style="edgeStyle=orthogonalEdgeStyle;rounded=0;sketch=0;jumpSize=4;orthogonalLoop=1;jettySize=auto;html=1;entryX=0.5;entryY=0;entryDx=0;entryDy=0;fontSize=9;startArrow=none;startFill=0;endArrow=classic;endFill=1;exitX=0.5;exitY=0;exitDx=0;exitDy=0;strokeColor=#A8201A;fontColor=#143642;labelBackgroundColor=#DAD2D8;jumpStyle=arc;" parent="1" source="qaGRKvT1l1mY-O0_eX8v-1" target="qaGRKvT1l1mY-O0_eX8v-13" edge="1">
          <mxGeometry relative="1" as="geometry">
            <mxPoint x="-336" y="50" as="sourcePoint" />
            <mxPoint x="-96" y="50" as="targetPoint" />
            <Array as="points">
              <mxPoint x="-426" y="30" />
              <mxPoint x="-186" y="30" />
            </Array>
          </mxGeometry>
        </mxCell>
        <mxCell id="qaGRKvT1l1mY-O0_eX8v-60" value="&lt;div&gt;Why not update map tables &lt;br&gt;&lt;/div&gt;&lt;div&gt;once extract is completed?&lt;/div&gt;" style="edgeLabel;html=1;align=center;verticalAlign=middle;resizable=0;points=[];fontSize=3;fontColor=#143642;labelBackgroundColor=#DAD2D8;" parent="qaGRKvT1l1mY-O0_eX8v-57" vertex="1" connectable="0">
          <mxGeometry x="-0.3693" y="1" relative="1" as="geometry">
            <mxPoint x="-19" as="offset" />
          </mxGeometry>
        </mxCell>
        <mxCell id="qaGRKvT1l1mY-O0_eX8v-72" value="Database metadata" style="rounded=0;whiteSpace=wrap;html=1;fontSize=9;fillColor=#FAE5C7;strokeColor=#0F8B8D;fontColor=#143642;" parent="1" vertex="1">
          <mxGeometry x="-386" y="240" width="40" height="40" as="geometry" />
        </mxCell>
        <mxCell id="qaGRKvT1l1mY-O0_eX8v-75" value="&lt;div&gt;Information about&amp;nbsp; &lt;br&gt;&lt;/div&gt;&lt;div&gt;* tables&lt;/div&gt;&lt;div&gt;* columns&lt;/div&gt;&lt;div&gt;* rows/size of tables&lt;/div&gt;&lt;div&gt;* size of logs&lt;br&gt;&lt;/div&gt;&lt;div&gt;* CPU &amp;amp; RAM utilization&lt;/div&gt;&lt;div&gt;* storage on disk&lt;/div&gt;&lt;div&gt;* &lt;br&gt;&lt;/div&gt;" style="text;html=1;strokeColor=none;fillColor=none;align=left;verticalAlign=top;whiteSpace=wrap;rounded=0;fontSize=3;spacing=0;fontColor=#143642;" parent="1" vertex="1">
          <mxGeometry x="-386" y="290" width="40" height="60" as="geometry" />
        </mxCell>
        <mxCell id="qaGRKvT1l1mY-O0_eX8v-76" style="edgeStyle=orthogonalEdgeStyle;rounded=0;sketch=0;jumpSize=6;orthogonalLoop=1;jettySize=auto;html=1;fontSize=3;startArrow=none;startFill=0;endArrow=classic;endFill=1;exitX=0.5;exitY=0;exitDx=0;exitDy=0;entryX=0.25;entryY=1;entryDx=0;entryDy=0;strokeColor=#A8201A;fontColor=#143642;labelBackgroundColor=#DAD2D8;" parent="1" source="qaGRKvT1l1mY-O0_eX8v-72" edge="1">
          <mxGeometry relative="1" as="geometry">
            <mxPoint x="-436" y="240" as="sourcePoint" />
            <mxPoint x="-436" y="179.99999999999994" as="targetPoint" />
            <Array as="points">
              <mxPoint x="-366" y="230" />
              <mxPoint x="-436" y="230" />
            </Array>
          </mxGeometry>
        </mxCell>
        <mxCell id="qaGRKvT1l1mY-O0_eX8v-85" value="" style="shape=image;verticalLabelPosition=bottom;labelBackgroundColor=#ffffff;verticalAlign=top;aspect=fixed;imageAspect=0;image=https://www.computerhope.com/issues/pictures/excel-logo.jpg;" parent="1" vertex="1">
          <mxGeometry x="-66" y="90" width="40" height="40" as="geometry" />
        </mxCell>
        <mxCell id="qaGRKvT1l1mY-O0_eX8v-81" value="" style="shape=image;verticalLabelPosition=bottom;labelBackgroundColor=#ffffff;verticalAlign=top;aspect=fixed;imageAspect=0;image=https://powerbi.microsoft.com/pictures/application-logos/svg/powerbi.svg;strokeWidth=0;perimeterSpacing=0;" parent="1" vertex="1">
          <mxGeometry x="-65" y="41" width="38" height="38" as="geometry" />
        </mxCell>
        <mxCell id="qaGRKvT1l1mY-O0_eX8v-87" value="&lt;div&gt;Who ran what jobs, when did they run? &lt;br&gt;&lt;/div&gt;&lt;div&gt;How much data was selected, inserted, updated, deleted?&lt;br&gt;&lt;/div&gt;" style="text;html=1;strokeColor=none;fillColor=none;align=left;verticalAlign=top;whiteSpace=wrap;rounded=0;fontSize=3;spacing=0;fontColor=#143642;" parent="1" vertex="1">
          <mxGeometry x="-266" y="290" width="40" height="60" as="geometry" />
        </mxCell>
        <mxCell id="qaGRKvT1l1mY-O0_eX8v-88" value="Security" style="rounded=0;whiteSpace=wrap;html=1;fontSize=9;fillColor=#FAE5C7;strokeColor=#0F8B8D;fontColor=#143642;" parent="1" vertex="1">
          <mxGeometry x="-206" y="240" width="40" height="40" as="geometry" />
        </mxCell>
        <mxCell id="qaGRKvT1l1mY-O0_eX8v-89" value="&lt;div&gt;What groups/users can access what layers?&lt;/div&gt;&lt;div&gt;RLS&lt;/div&gt;Who have made what queries?&lt;br&gt;&lt;div&gt;&lt;br&gt;&lt;/div&gt;" style="text;html=1;strokeColor=none;fillColor=none;align=left;verticalAlign=top;whiteSpace=wrap;rounded=0;fontSize=3;spacing=0;fontColor=#143642;" parent="1" vertex="1">
          <mxGeometry x="-206" y="290" width="40" height="60" as="geometry" />
        </mxCell>
      </root>
    </mxGraphModel>
  </diagram>
  <diagram id="E1e14xCHLcrbIgRR_OpF" name="Data model">
    <mxGraphModel dx="946" dy="615" grid="0" gridSize="10" guides="1" tooltips="1" connect="1" arrows="1" fold="1" page="1" pageScale="1" pageWidth="850" pageHeight="1100" math="0" shadow="0">
      <root>
        <mxCell id="CmqZrObAVcjuqnkso3O--0" />
        <mxCell id="CmqZrObAVcjuqnkso3O--1" parent="CmqZrObAVcjuqnkso3O--0" />
        <mxCell id="CmqZrObAVcjuqnkso3O--31" value="[DWH].[DWHColumns]" style="shape=table;startSize=30;container=1;collapsible=1;childLayout=tableLayout;fixedRows=1;rowLines=0;fontStyle=1;align=center;resizeLast=1;" parent="CmqZrObAVcjuqnkso3O--1" vertex="1">
          <mxGeometry x="90" y="210" width="320" height="280" as="geometry">
            <mxRectangle x="90" y="210" width="160" height="30" as="alternateBounds" />
          </mxGeometry>
        </mxCell>
        <mxCell id="CmqZrObAVcjuqnkso3O--53" value="" style="shape=partialRectangle;collapsible=0;dropTarget=0;pointerEvents=0;fillColor=none;points=[[0,0.5],[1,0.5]];portConstraint=eastwest;top=0;left=0;right=0;bottom=1;" parent="CmqZrObAVcjuqnkso3O--31" vertex="1">
          <mxGeometry y="30" width="320" height="30" as="geometry" />
        </mxCell>
        <mxCell id="CmqZrObAVcjuqnkso3O--54" value="PK" style="shape=partialRectangle;overflow=hidden;connectable=0;fillColor=none;top=0;left=0;bottom=0;right=0;fontStyle=1;" parent="CmqZrObAVcjuqnkso3O--53" vertex="1">
          <mxGeometry width="30" height="30" as="geometry" />
        </mxCell>
        <mxCell id="CmqZrObAVcjuqnkso3O--55" value="CONSTRAINT [PK_dbo_DWHColumns]  CLUSTERED ([Id] ASC)" style="shape=partialRectangle;overflow=hidden;connectable=0;fillColor=none;top=0;left=0;bottom=0;right=0;align=left;spacingLeft=6;fontStyle=5;" parent="CmqZrObAVcjuqnkso3O--53" vertex="1">
          <mxGeometry x="30" width="290" height="30" as="geometry" />
        </mxCell>
        <mxCell id="CmqZrObAVcjuqnkso3O--50" value="" style="shape=partialRectangle;collapsible=0;dropTarget=0;pointerEvents=0;fillColor=none;points=[[0,0.5],[1,0.5]];portConstraint=eastwest;top=0;left=0;right=0;bottom=0;" parent="CmqZrObAVcjuqnkso3O--31" vertex="1">
          <mxGeometry y="60" width="320" height="30" as="geometry" />
        </mxCell>
        <mxCell id="CmqZrObAVcjuqnkso3O--51" value="" style="shape=partialRectangle;overflow=hidden;connectable=0;fillColor=none;top=0;left=0;bottom=0;right=0;" parent="CmqZrObAVcjuqnkso3O--50" vertex="1">
          <mxGeometry width="30" height="30" as="geometry" />
        </mxCell>
        <mxCell id="CmqZrObAVcjuqnkso3O--52" value="[ColProperty] NVARCHAR(30) NULL, /* e.g. identity etc */" style="shape=partialRectangle;overflow=hidden;connectable=0;fillColor=none;top=0;left=0;bottom=0;right=0;align=left;spacingLeft=6;" parent="CmqZrObAVcjuqnkso3O--50" vertex="1">
          <mxGeometry x="30" width="290" height="30" as="geometry" />
        </mxCell>
        <mxCell id="CmqZrObAVcjuqnkso3O--47" value="" style="shape=partialRectangle;collapsible=0;dropTarget=0;pointerEvents=0;fillColor=none;points=[[0,0.5],[1,0.5]];portConstraint=eastwest;top=0;left=0;right=0;bottom=0;" parent="CmqZrObAVcjuqnkso3O--31" vertex="1">
          <mxGeometry y="90" width="320" height="30" as="geometry" />
        </mxCell>
        <mxCell id="CmqZrObAVcjuqnkso3O--48" value="" style="shape=partialRectangle;overflow=hidden;connectable=0;fillColor=none;top=0;left=0;bottom=0;right=0;" parent="CmqZrObAVcjuqnkso3O--47" vertex="1">
          <mxGeometry width="30" height="30" as="geometry" />
        </mxCell>
        <mxCell id="CmqZrObAVcjuqnkso3O--49" value="[IsNullable] NVARCHAR(8) NOT NULL" style="shape=partialRectangle;overflow=hidden;connectable=0;fillColor=none;top=0;left=0;bottom=0;right=0;align=left;spacingLeft=6;" parent="CmqZrObAVcjuqnkso3O--47" vertex="1">
          <mxGeometry x="30" width="290" height="30" as="geometry" />
        </mxCell>
        <mxCell id="CmqZrObAVcjuqnkso3O--44" value="" style="shape=partialRectangle;collapsible=0;dropTarget=0;pointerEvents=0;fillColor=none;points=[[0,0.5],[1,0.5]];portConstraint=eastwest;top=0;left=0;right=0;bottom=0;" parent="CmqZrObAVcjuqnkso3O--31" vertex="1">
          <mxGeometry y="120" width="320" height="30" as="geometry" />
        </mxCell>
        <mxCell id="CmqZrObAVcjuqnkso3O--45" value="" style="shape=partialRectangle;overflow=hidden;connectable=0;fillColor=none;top=0;left=0;bottom=0;right=0;" parent="CmqZrObAVcjuqnkso3O--44" vertex="1">
          <mxGeometry width="30" height="30" as="geometry" />
        </mxCell>
        <mxCell id="CmqZrObAVcjuqnkso3O--46" value="[DataType] NVARCHAR(30) NOT NULL" style="shape=partialRectangle;overflow=hidden;connectable=0;fillColor=none;top=0;left=0;bottom=0;right=0;align=left;spacingLeft=6;" parent="CmqZrObAVcjuqnkso3O--44" vertex="1">
          <mxGeometry x="30" width="290" height="30" as="geometry" />
        </mxCell>
        <mxCell id="CmqZrObAVcjuqnkso3O--41" value="" style="shape=partialRectangle;collapsible=0;dropTarget=0;pointerEvents=0;fillColor=none;points=[[0,0.5],[1,0.5]];portConstraint=eastwest;top=0;left=0;right=0;bottom=0;" parent="CmqZrObAVcjuqnkso3O--31" vertex="1">
          <mxGeometry y="150" width="320" height="30" as="geometry" />
        </mxCell>
        <mxCell id="CmqZrObAVcjuqnkso3O--42" value="" style="shape=partialRectangle;overflow=hidden;connectable=0;fillColor=none;top=0;left=0;bottom=0;right=0;" parent="CmqZrObAVcjuqnkso3O--41" vertex="1">
          <mxGeometry width="30" height="30" as="geometry" />
        </mxCell>
        <mxCell id="CmqZrObAVcjuqnkso3O--43" value="[ColumnName] NVARCHAR(128) NOT NULL" style="shape=partialRectangle;overflow=hidden;connectable=0;fillColor=none;top=0;left=0;bottom=0;right=0;align=left;spacingLeft=6;" parent="CmqZrObAVcjuqnkso3O--41" vertex="1">
          <mxGeometry x="30" width="290" height="30" as="geometry" />
        </mxCell>
        <mxCell id="CmqZrObAVcjuqnkso3O--38" value="" style="shape=partialRectangle;collapsible=0;dropTarget=0;pointerEvents=0;fillColor=none;points=[[0,0.5],[1,0.5]];portConstraint=eastwest;top=0;left=0;right=0;bottom=0;" parent="CmqZrObAVcjuqnkso3O--31" vertex="1">
          <mxGeometry y="180" width="320" height="30" as="geometry" />
        </mxCell>
        <mxCell id="CmqZrObAVcjuqnkso3O--39" value="" style="shape=partialRectangle;overflow=hidden;connectable=0;fillColor=none;top=0;left=0;bottom=0;right=0;" parent="CmqZrObAVcjuqnkso3O--38" vertex="1">
          <mxGeometry width="30" height="30" as="geometry" />
        </mxCell>
        <mxCell id="CmqZrObAVcjuqnkso3O--40" value="[TableName] NVARCHAR(128) NULL" style="shape=partialRectangle;overflow=hidden;connectable=0;fillColor=none;top=0;left=0;bottom=0;right=0;align=left;spacingLeft=6;" parent="CmqZrObAVcjuqnkso3O--38" vertex="1">
          <mxGeometry x="30" width="290" height="30" as="geometry" />
        </mxCell>
        <mxCell id="CmqZrObAVcjuqnkso3O--35" value="" style="shape=partialRectangle;collapsible=0;dropTarget=0;pointerEvents=0;fillColor=none;points=[[0,0.5],[1,0.5]];portConstraint=eastwest;top=0;left=0;right=0;bottom=0;" parent="CmqZrObAVcjuqnkso3O--31" vertex="1">
          <mxGeometry y="210" width="320" height="30" as="geometry" />
        </mxCell>
        <mxCell id="CmqZrObAVcjuqnkso3O--36" value="" style="shape=partialRectangle;overflow=hidden;connectable=0;fillColor=none;top=0;left=0;bottom=0;right=0;" parent="CmqZrObAVcjuqnkso3O--35" vertex="1">
          <mxGeometry width="30" height="30" as="geometry" />
        </mxCell>
        <mxCell id="CmqZrObAVcjuqnkso3O--37" value="[SchemaName] NVARCHAR(128) NOT NULL, /* http://web.archive.org/web/20210807074712/https://docs.microsoft.com/en-us/sql/sql-server/maximum-capacity-specifications-for-sql-server?view=sql-server-ver15 */" style="shape=partialRectangle;overflow=hidden;connectable=0;fillColor=none;top=0;left=0;bottom=0;right=0;align=left;spacingLeft=6;" parent="CmqZrObAVcjuqnkso3O--35" vertex="1">
          <mxGeometry x="30" width="290" height="30" as="geometry" />
        </mxCell>
        <mxCell id="CmqZrObAVcjuqnkso3O--32" value="" style="shape=partialRectangle;collapsible=0;dropTarget=0;pointerEvents=0;fillColor=none;points=[[0,0.5],[1,0.5]];portConstraint=eastwest;top=0;left=0;right=0;bottom=0;" parent="CmqZrObAVcjuqnkso3O--31" vertex="1">
          <mxGeometry y="240" width="320" height="30" as="geometry" />
        </mxCell>
        <mxCell id="CmqZrObAVcjuqnkso3O--33" value="" style="shape=partialRectangle;overflow=hidden;connectable=0;fillColor=none;top=0;left=0;bottom=0;right=0;" parent="CmqZrObAVcjuqnkso3O--32" vertex="1">
          <mxGeometry width="30" height="30" as="geometry" />
        </mxCell>
        <mxCell id="CmqZrObAVcjuqnkso3O--34" value="[Id] BIGINT NOT NULL IDENTITY (1,1)" style="shape=partialRectangle;overflow=hidden;connectable=0;fillColor=none;top=0;left=0;bottom=0;right=0;align=left;spacingLeft=6;" parent="CmqZrObAVcjuqnkso3O--32" vertex="1">
          <mxGeometry x="30" width="290" height="30" as="geometry" />
        </mxCell>
        <mxCell id="CmqZrObAVcjuqnkso3O--56" value="[DWH].[ObjectDescriptions]" style="shape=table;startSize=30;container=1;collapsible=1;childLayout=tableLayout;fixedRows=1;rowLines=0;fontStyle=1;align=center;resizeLast=1;" parent="CmqZrObAVcjuqnkso3O--1" vertex="1">
          <mxGeometry x="472" y="81" width="340" height="310" as="geometry">
            <mxRectangle x="500" y="70" width="190" height="30" as="alternateBounds" />
          </mxGeometry>
        </mxCell>
        <mxCell id="CmqZrObAVcjuqnkso3O--78" value="" style="shape=partialRectangle;collapsible=0;dropTarget=0;pointerEvents=0;fillColor=none;points=[[0,0.5],[1,0.5]];portConstraint=eastwest;top=0;left=0;right=0;bottom=1;" parent="CmqZrObAVcjuqnkso3O--56" vertex="1">
          <mxGeometry y="30" width="340" height="30" as="geometry" />
        </mxCell>
        <mxCell id="CmqZrObAVcjuqnkso3O--79" value="PK" style="shape=partialRectangle;overflow=hidden;connectable=0;fillColor=none;top=0;left=0;bottom=0;right=0;fontStyle=1;" parent="CmqZrObAVcjuqnkso3O--78" vertex="1">
          <mxGeometry width="30" height="30" as="geometry" />
        </mxCell>
        <mxCell id="CmqZrObAVcjuqnkso3O--80" value="[PrimaryObjectName]		NVARCHAR(128)	NOT NULL" style="shape=partialRectangle;overflow=hidden;connectable=0;fillColor=none;top=0;left=0;bottom=0;right=0;align=left;spacingLeft=6;fontStyle=5;" parent="CmqZrObAVcjuqnkso3O--78" vertex="1">
          <mxGeometry x="30" width="310" height="30" as="geometry" />
        </mxCell>
        <mxCell id="CySxDUxJzeM0KbbXyZC5-43" value="" style="shape=partialRectangle;collapsible=0;dropTarget=0;pointerEvents=0;fillColor=none;points=[[0,0.5],[1,0.5]];portConstraint=eastwest;top=0;left=0;right=0;bottom=1;" vertex="1" parent="CmqZrObAVcjuqnkso3O--56">
          <mxGeometry y="60" width="340" height="30" as="geometry" />
        </mxCell>
        <mxCell id="CySxDUxJzeM0KbbXyZC5-44" value="PK" style="shape=partialRectangle;overflow=hidden;connectable=0;fillColor=none;top=0;left=0;bottom=0;right=0;fontStyle=1;" vertex="1" parent="CySxDUxJzeM0KbbXyZC5-43">
          <mxGeometry width="30" height="30" as="geometry" />
        </mxCell>
        <mxCell id="CySxDUxJzeM0KbbXyZC5-45" value="[SecondaryObjectName]	NVARCHAR(128)	NOT NULL" style="shape=partialRectangle;overflow=hidden;connectable=0;fillColor=none;top=0;left=0;bottom=0;right=0;align=left;spacingLeft=6;fontStyle=5;" vertex="1" parent="CySxDUxJzeM0KbbXyZC5-43">
          <mxGeometry x="30" width="310" height="30" as="geometry" />
        </mxCell>
        <mxCell id="CmqZrObAVcjuqnkso3O--66" value="" style="shape=partialRectangle;collapsible=0;dropTarget=0;pointerEvents=0;fillColor=none;points=[[0,0.5],[1,0.5]];portConstraint=eastwest;top=0;left=0;right=0;bottom=0;" parent="CmqZrObAVcjuqnkso3O--56" vertex="1">
          <mxGeometry y="90" width="340" height="30" as="geometry" />
        </mxCell>
        <mxCell id="CmqZrObAVcjuqnkso3O--67" value="" style="shape=partialRectangle;overflow=hidden;connectable=0;fillColor=none;top=0;left=0;bottom=0;right=0;" parent="CmqZrObAVcjuqnkso3O--66" vertex="1">
          <mxGeometry width="30" height="30" as="geometry" />
        </mxCell>
        <mxCell id="CmqZrObAVcjuqnkso3O--68" value="" style="shape=partialRectangle;overflow=hidden;connectable=0;fillColor=none;top=0;left=0;bottom=0;right=0;align=left;spacingLeft=6;" parent="CmqZrObAVcjuqnkso3O--66" vertex="1">
          <mxGeometry x="30" width="310" height="30" as="geometry" />
        </mxCell>
        <mxCell id="CmqZrObAVcjuqnkso3O--69" value="" style="shape=partialRectangle;collapsible=0;dropTarget=0;pointerEvents=0;fillColor=none;points=[[0,0.5],[1,0.5]];portConstraint=eastwest;top=0;left=0;right=0;bottom=0;" parent="CmqZrObAVcjuqnkso3O--56" vertex="1">
          <mxGeometry y="120" width="340" height="30" as="geometry" />
        </mxCell>
        <mxCell id="CmqZrObAVcjuqnkso3O--70" value="" style="shape=partialRectangle;overflow=hidden;connectable=0;fillColor=none;top=0;left=0;bottom=0;right=0;" parent="CmqZrObAVcjuqnkso3O--69" vertex="1">
          <mxGeometry width="30" height="30" as="geometry" />
        </mxCell>
        <mxCell id="CmqZrObAVcjuqnkso3O--71" value="[Classification]		NVARCHAR(128)	NOT NULL" style="shape=partialRectangle;overflow=hidden;connectable=0;fillColor=none;top=0;left=0;bottom=0;right=0;align=left;spacingLeft=6;" parent="CmqZrObAVcjuqnkso3O--69" vertex="1">
          <mxGeometry x="30" width="310" height="30" as="geometry" />
        </mxCell>
        <mxCell id="CmqZrObAVcjuqnkso3O--57" value="" style="shape=partialRectangle;collapsible=0;dropTarget=0;pointerEvents=0;fillColor=none;points=[[0,0.5],[1,0.5]];portConstraint=eastwest;top=0;left=0;right=0;bottom=0;" parent="CmqZrObAVcjuqnkso3O--56" vertex="1">
          <mxGeometry y="150" width="340" height="30" as="geometry" />
        </mxCell>
        <mxCell id="CmqZrObAVcjuqnkso3O--58" value="" style="shape=partialRectangle;overflow=hidden;connectable=0;fillColor=none;top=0;left=0;bottom=0;right=0;" parent="CmqZrObAVcjuqnkso3O--57" vertex="1">
          <mxGeometry width="30" height="30" as="geometry" />
        </mxCell>
        <mxCell id="CmqZrObAVcjuqnkso3O--59" value="[ObjectType]			NVARCHAR(128)	NOT NULL" style="shape=partialRectangle;overflow=hidden;connectable=0;fillColor=none;top=0;left=0;bottom=0;right=0;align=left;spacingLeft=6;" parent="CmqZrObAVcjuqnkso3O--57" vertex="1">
          <mxGeometry x="30" width="310" height="30" as="geometry" />
        </mxCell>
        <mxCell id="CmqZrObAVcjuqnkso3O--60" value="" style="shape=partialRectangle;collapsible=0;dropTarget=0;pointerEvents=0;fillColor=none;points=[[0,0.5],[1,0.5]];portConstraint=eastwest;top=0;left=0;right=0;bottom=0;" parent="CmqZrObAVcjuqnkso3O--56" vertex="1">
          <mxGeometry y="180" width="340" height="30" as="geometry" />
        </mxCell>
        <mxCell id="CmqZrObAVcjuqnkso3O--61" value="" style="shape=partialRectangle;overflow=hidden;connectable=0;fillColor=none;top=0;left=0;bottom=0;right=0;" parent="CmqZrObAVcjuqnkso3O--60" vertex="1">
          <mxGeometry width="30" height="30" as="geometry" />
        </mxCell>
        <mxCell id="CmqZrObAVcjuqnkso3O--62" value="[SchemaName]			NVARCHAR(128)	NOT NULL" style="shape=partialRectangle;overflow=hidden;connectable=0;fillColor=none;top=0;left=0;bottom=0;right=0;align=left;spacingLeft=6;" parent="CmqZrObAVcjuqnkso3O--60" vertex="1">
          <mxGeometry x="30" width="310" height="30" as="geometry" />
        </mxCell>
        <mxCell id="CmqZrObAVcjuqnkso3O--63" value="" style="shape=partialRectangle;collapsible=0;dropTarget=0;pointerEvents=0;fillColor=none;points=[[0,0.5],[1,0.5]];portConstraint=eastwest;top=0;left=0;right=0;bottom=0;" parent="CmqZrObAVcjuqnkso3O--56" vertex="1">
          <mxGeometry y="210" width="340" height="30" as="geometry" />
        </mxCell>
        <mxCell id="CmqZrObAVcjuqnkso3O--64" value="" style="shape=partialRectangle;overflow=hidden;connectable=0;fillColor=none;top=0;left=0;bottom=0;right=0;" parent="CmqZrObAVcjuqnkso3O--63" vertex="1">
          <mxGeometry width="30" height="30" as="geometry" />
        </mxCell>
        <mxCell id="CmqZrObAVcjuqnkso3O--65" value="" style="shape=partialRectangle;overflow=hidden;connectable=0;fillColor=none;top=0;left=0;bottom=0;right=0;align=left;spacingLeft=6;" parent="CmqZrObAVcjuqnkso3O--63" vertex="1">
          <mxGeometry x="30" width="310" height="30" as="geometry" />
        </mxCell>
        <mxCell id="CmqZrObAVcjuqnkso3O--75" value="" style="shape=partialRectangle;collapsible=0;dropTarget=0;pointerEvents=0;fillColor=none;points=[[0,0.5],[1,0.5]];portConstraint=eastwest;top=0;left=0;right=0;bottom=0;" parent="CmqZrObAVcjuqnkso3O--56" vertex="1">
          <mxGeometry y="240" width="340" height="30" as="geometry" />
        </mxCell>
        <mxCell id="CmqZrObAVcjuqnkso3O--76" value="" style="shape=partialRectangle;overflow=hidden;connectable=0;fillColor=none;top=0;left=0;bottom=0;right=0;" parent="CmqZrObAVcjuqnkso3O--75" vertex="1">
          <mxGeometry width="30" height="30" as="geometry" />
        </mxCell>
        <mxCell id="CmqZrObAVcjuqnkso3O--77" value="[Active]				BIT				NOT NULL" style="shape=partialRectangle;overflow=hidden;connectable=0;fillColor=none;top=0;left=0;bottom=0;right=0;align=left;spacingLeft=6;" parent="CmqZrObAVcjuqnkso3O--75" vertex="1">
          <mxGeometry x="30" width="310" height="30" as="geometry" />
        </mxCell>
        <mxCell id="CmqZrObAVcjuqnkso3O--72" value="" style="shape=partialRectangle;collapsible=0;dropTarget=0;pointerEvents=0;fillColor=none;points=[[0,0.5],[1,0.5]];portConstraint=eastwest;top=0;left=0;right=0;bottom=0;" parent="CmqZrObAVcjuqnkso3O--56" vertex="1">
          <mxGeometry y="270" width="340" height="30" as="geometry" />
        </mxCell>
        <mxCell id="CmqZrObAVcjuqnkso3O--73" value="" style="shape=partialRectangle;overflow=hidden;connectable=0;fillColor=none;top=0;left=0;bottom=0;right=0;" parent="CmqZrObAVcjuqnkso3O--72" vertex="1">
          <mxGeometry width="30" height="30" as="geometry" />
        </mxCell>
        <mxCell id="CmqZrObAVcjuqnkso3O--74" value="[Comment]				NVARCHAR(MAX)	NOT NULL" style="shape=partialRectangle;overflow=hidden;connectable=0;fillColor=none;top=0;left=0;bottom=0;right=0;align=left;spacingLeft=6;" parent="CmqZrObAVcjuqnkso3O--72" vertex="1">
          <mxGeometry x="30" width="310" height="30" as="geometry" />
        </mxCell>
        <mxCell id="xdo31wcJdmn5qxEdSJz--61" style="edgeStyle=orthogonalEdgeStyle;rounded=0;orthogonalLoop=1;jettySize=auto;html=1;endArrow=ERzeroToMany;endFill=1;startArrow=ERmandOne;startFill=0;exitX=1;exitY=0.5;exitDx=0;exitDy=0;" edge="1" parent="CmqZrObAVcjuqnkso3O--1" source="CmqZrObAVcjuqnkso3O--41" target="CmqZrObAVcjuqnkso3O--63">
          <mxGeometry relative="1" as="geometry" />
        </mxCell>
      </root>
    </mxGraphModel>
  </diagram>
</mxfile>
